<?xml version="1.0" encoding="UTF-8"?>
<svg id="Layer_1" xmlns="http://www.w3.org/2000/svg" version="1.1" viewBox="0 0 634.08 174.92">
  <!-- Generator: Adobe Illustrator 29.5.1, SVG Export Plug-In . SVG Version: 2.1.0 Build 141)  -->
  <defs>
    <style>
      .st0 {
        fill: #0056b3;
      }

      .st1 {
        fill: #c50;
      }
    </style>
  </defs>
  <path class="st0" d="M17.93,85.41v36.91c0,.45.15.82.45,1.12s.67.45,1.12.45.82-.15,1.12-.45c.22-.3.45-.67.45-1.12v-33.85h17.93v32.58c0,5.16-2.09,10.01-5.68,13.67-3.59,3.59-8.52,5.6-13.6,5.6h-.45c-5.16,0-10.01-2.02-13.67-5.6-3.59-3.66-5.6-8.52-5.6-13.67V52.83c0-5.16,2.02-10.01,5.6-13.6s8.52-5.68,13.67-5.68h.45c5.08,0,10.01,2.02,13.6,5.68,3.59,3.59,5.68,8.44,5.68,13.6v32.58h-21.07ZM21.07,68.97v-17.41c0-.45-.22-.82-.45-1.12-.3-.3-.67-.45-1.12-.45s-.82.15-1.12.45-.45.67-.45,1.12v17.41h3.14Z"/>
  <path class="st0" d="M60.23,34.6v87.8c0,.37.15.75.45,1.05s.67.45,1.12.45.82-.15,1.12-.45c.22-.22.37-.45.45-.75l22.64-73.9s4.48-14.72,17.93-15.17c10.54-.3,19.43,7.32,19.43,17.93v33.85h-17.93v-33.85c0-.45-.15-.82-.45-1.12-.22-.22-.6-.45-.97-.45-.6,0-1.27.15-1.79,1.72l-21.37,73.45c-.82,3.59-2.62,6.95-5.23,9.56-3.59,3.59-8.52,5.6-13.6,5.6h-.45c-5.16,0-10.01-2.02-13.67-5.6-3.59-3.66-5.6-8.52-5.6-13.6V34.6h17.93ZM63.36,34.6h17.93v19.58l-17.93,58.51V34.6ZM102.37,61.72v77.56h-17.93v-15.99l17.93-61.57Z"/>
  <path class="st0" d="M165.66,121.05c0,5.16-2.09,10.01-5.68,13.67-3.59,3.59-8.52,5.6-13.6,5.6h-.45c-5.16,0-10.01-2.02-13.67-5.6-3.59-3.66-5.6-8.52-5.6-13.67V52.83c0-5.16,2.02-10.01,5.6-13.6s8.52-5.68,13.67-5.68h.45c5.08,0,10.01,2.02,13.6,5.68,3.59,3.59,5.68,8.44,5.68,13.6v68.22ZM146.15,49.99c-.45,0-.82.15-1.12.45s-.45.67-.45,1.12v70.76c0,.45.15.82.45,1.12s.67.45,1.12.45.82-.15,1.12-.45c.22-.3.45-.67.45-1.12V51.56c0-.45-.22-.82-.45-1.12-.3-.3-.67-.45-1.12-.45Z"/>
  <path class="st0" d="M190.02,70.69v-19.13c0-.45-.22-.82-.45-1.12-.3-.3-.67-.45-1.12-.45s-.82.15-1.12.45-.45.67-.45,1.12v15.02h-17.93v-13.75c0-5.16,2.02-10.01,5.6-13.6s8.52-5.68,13.67-5.68h.45c5.08,0,10.01,2.02,13.6,5.68,3.59,3.59,5.68,8.44,5.68,13.6v68.22c0,5.16-2.09,10.01-5.68,13.67-3.59,3.59-8.52,5.6-13.6,5.6h-.45c-5.16,0-10.01-2.02-13.67-5.6-3.59-3.66-5.6-8.52-5.6-13.67v-32.2c0-8.14,3.96-17.78,13.15-19.2,2.99-.52,5.6,0,7.92,1.05ZM190.02,87.57c0-.45-.22-.82-.45-1.12-.3-.3-.67-.45-1.12-.45s-.82.15-1.12.45-.45.67-.45,1.12v34.75c0,.45.15.82.45,1.12s.67.45,1.12.45.82-.15,1.12-.45c.22-.3.45-.67.45-1.12v-34.75Z"/>
  <path class="st0" d="M221.55,86.98l-10.31-25.93v-26.45h17.93v26.53l1.57,5.83,1.57-5.83v-26.53h17.93v26.45l-10.39,25.93,10.39,25.85v26.45h-17.93v-26.53l-1.64-5.9-1.49,5.9v26.53h-17.93v-26.45l10.31-25.85Z"/>
  <path class="st0" d="M253.53,13.52h17.93v17.93h-17.93V13.52ZM253.53,34.6h17.93v104.68h-17.93V34.6Z"/>
  <path class="st0" d="M295.82,103.64c0-2.02-.75-3.89-2.02-5.31l-13.23-14.94c-3.74-4.18-5.83-9.64-5.83-15.24v-15.32c0-5.16,2.02-10.01,5.6-13.6s8.52-5.68,13.67-5.68h.45c5.08,0,10.01,2.02,13.6,5.68,3.59,3.59,5.68,8.44,5.68,13.6v19.8h-17.93v-21.07c0-.45-.22-.82-.45-1.12-.3-.3-.67-.45-1.12-.45s-.82.15-1.12.45-.45.67-.45,1.12v17.71c0,2.02.75,3.89,2.02,5.31l13.23,14.94c3.74,4.18,5.83,9.56,5.83,15.24v16.29c0,5.16-2.09,10.01-5.68,13.67-3.59,3.59-8.52,5.6-13.6,5.6h-.45c-5.16,0-10.01-2.02-13.67-5.6-3.59-3.66-5.6-8.52-5.6-13.67v-20.77h17.93v22.04c0,.45.15.82.45,1.12s.67.45,1.12.45.82-.15,1.12-.45c.22-.3.45-.67.45-1.12v-18.68Z"/>
  <path class="st1" d="M317.04,0h17.93v139.28h-17.93V0Z"/>
  <path class="st1" d="M356.2,51.56v70.76c0,.37.15.82.45,1.05.3.3.67.52,1.12.52s.82-.22,1.12-.52c.22-.15.37-.45.45-.75l22.64-73.9s4.48-14.72,17.93-15.17c10.54-.3,19.43,7.32,19.43,17.93v104.16c0,5.08-2.02,10.01-5.6,13.6-3.66,3.59-8.52,5.68-13.6,5.68h-.52c-5.08,0-10.01-2.09-13.6-5.68s-5.6-8.52-5.6-13.6v-12.48h17.93v13.75c0,.37.15.82.45,1.12s.67.45,1.05.45h.07c.37,0,.82-.15,1.05-.45.3-.3.45-.75.45-1.12v-17.86c-2.24,1.05-4.86,1.49-7.92,1.05-8.37-1.34-12.4-9.56-13-17.19l17.86-61.27v60.52c0,.37.15.75.45,1.05s.67.45,1.05.45h.07c.37,0,.82-.15,1.05-.45.3-.3.45-.67.45-1.05V51.48c0-.37-.15-.82-.45-1.12-.22-.22-.6-.37-.97-.45-.6,0-1.27.15-1.79,1.72l-21.37,73.45c-.82,3.59-2.62,6.95-5.23,9.56-3.59,3.59-8.52,5.6-13.6,5.6h-.45c-5.16,0-10.01-2.02-13.67-5.6-3.59-3.59-5.6-8.52-5.6-13.6V52.83c0-5.08,2.02-10.01,5.6-13.6,3.66-3.59,8.52-5.6,13.67-5.6h.45c5.08,0,10.01,2.02,13.6,5.6s5.68,8.52,5.68,13.6v1.34l-17.93,58.43v-61.05c0-.37-.22-.82-.45-1.12-.3-.22-.67-.45-1.12-.45s-.82.22-1.12.45c-.3.3-.45.75-.45,1.12Z"/>
  <path class="st1" d="M422.62,13.52h17.93v17.93h-17.93V13.52ZM422.62,34.6h17.93v104.68h-17.93V34.6Z"/>
  <path class="st1" d="M464.91,103.64c0-2.02-.75-3.89-2.02-5.31l-13.23-14.94c-3.74-4.18-5.83-9.64-5.83-15.24v-15.32c0-5.16,2.02-10.01,5.6-13.6s8.52-5.68,13.67-5.68h.45c5.08,0,10.01,2.02,13.6,5.68,3.59,3.59,5.68,8.44,5.68,13.6v19.8h-17.93v-21.07c0-.45-.22-.82-.45-1.12-.3-.3-.67-.45-1.12-.45s-.82.15-1.12.45-.45.67-.45,1.12v17.71c0,2.02.75,3.89,2.02,5.31l13.23,14.94c3.74,4.18,5.83,9.56,5.83,15.24v16.29c0,5.16-2.09,10.01-5.68,13.67-3.59,3.59-8.52,5.6-13.6,5.6h-.45c-5.16,0-10.01-2.02-13.67-5.6-3.59-3.66-5.6-8.52-5.6-13.67v-20.77h17.93v22.04c0,.45.15.82.45,1.12s.67.45,1.12.45.82-.15,1.12-.45c.22-.3.45-.67.45-1.12v-18.68Z"/>
  <path class="st1" d="M489.27,16.51h17.93v18.08h13.97v16.44h-13.97v71.28c0,.45.15.82.45,1.12s.67.45,1.12.45.82-.15,1.12-.45c.22-.3.45-.67.45-1.12v-14.5h17.93v13.23c0,5.16-2.09,10.01-5.68,13.67-3.59,3.59-8.52,5.6-13.6,5.6h-.52c-5.08,0-9.94-2.02-13.6-5.6-3.59-3.66-5.6-8.52-5.6-13.67V51.03h-3.14v-16.44h3.14v-18.08Z"/>
  <path class="st1" d="M531.57,13.52h17.93v17.93h-17.93V13.52ZM531.57,34.6h17.93v104.68h-17.93V34.6Z"/>
  <path class="st1" d="M591.79,88.47v32.58c0,5.16-2.09,10.01-5.68,13.67-3.59,3.59-8.52,5.6-13.6,5.6h-.45c-5.16,0-10.01-2.02-13.67-5.6-3.59-3.66-5.6-8.52-5.6-13.67V52.83c0-5.16,2.02-10.01,5.6-13.6s8.52-5.68,13.67-5.68h.45c5.08,0,10.01,2.02,13.6,5.68,3.59,3.59,5.68,8.44,5.68,13.6v32.58h-17.93v-33.85c0-.45-.22-.82-.45-1.12-.3-.3-.67-.45-1.12-.45s-.82.15-1.12.45-.45.67-.45,1.12v70.76c0,.45.15.82.45,1.12s.67.45,1.12.45.82-.15,1.12-.45c.22-.3.45-.67.45-1.12v-33.85h17.93Z"/>
  <path class="st1" d="M616.15,103.64c0-2.02-.75-3.89-2.02-5.31l-13.23-14.94c-3.74-4.18-5.83-9.64-5.83-15.24v-15.32c0-5.16,2.02-10.01,5.6-13.6s8.52-5.68,13.67-5.68h.45c5.08,0,10.01,2.02,13.6,5.68,3.59,3.59,5.68,8.44,5.68,13.6v19.8h-17.93v-21.07c0-.45-.22-.82-.45-1.12-.3-.3-.67-.45-1.12-.45s-.82.15-1.12.45-.45.67-.45,1.12v17.71c0,2.02.75,3.89,2.02,5.31l13.23,14.94c3.74,4.18,5.83,9.56,5.83,15.24v16.29c0,5.16-2.09,10.01-5.68,13.67-3.59,3.59-8.52,5.6-13.6,5.6h-.45c-5.16,0-10.01-2.02-13.67-5.6-3.59-3.66-5.6-8.52-5.6-13.67v-20.77h17.93v22.04c0,.45.15.82.45,1.12s.67.45,1.12.45.82-.15,1.12-.45c.22-.3.45-.67.45-1.12v-18.68Z"/>
</svg>