<svg xmlns="http://www.w3.org/2000/svg" width="200" height="80" viewBox="0 0 200 80">
  <path fill="#FF6A00" d="M40 40c0-5.333 4-9.333 9.333-9.333S58.667 34.667 58.667 40 54.667 49.333 49.333 49.333 40 45.333 40 40zm0 0h18.667M76 40c0-5.333 4-9.333 9.333-9.333S94.667 34.667 94.667 40 90.667 49.333 85.333 49.333 76 45.333 76 40zm0 0h18.667M112 40c0-5.333 4-9.333 9.333-9.333S130.667 34.667 130.667 40s-4 9.333-9.334 9.333S112 45.333 112 40zm0 0h18.667M148 40c0-5.333 4-9.333 9.333-9.333S166.667 34.667 166.667 40s-4 9.333-9.334 9.333S148 45.333 148 40zm0 0h18.667"/>
</svg>
