<svg xmlns="http://www.w3.org/2000/svg" width="200" height="80" viewBox="0 0 200 80">
  <path fill="#232F3E" d="M86.667 26.667c-5.333 0-10 1.333-13.334 4-1.333.667-1.333 2 0 2.667.667.666 2 .666 2.667 0 2.667-2 6.667-3.334 10.667-3.334 5.333 0 10.667 2 10.667 6v2c-4 0-9.334 0-13.334 1.334-5.333 1.333-9.333 4.666-9.333 10 0 6 4 9.333 9.333 9.333 4.667 0 8-1.333 12-4.667 1.334 2 2 3.334 4 4 1.334.667 2.667 0 3.334-1.333.667-1.334 1.333-2.667 1.333-4V36c0-6.667-5.333-9.333-12-9.333zm6.666 16.666c0 1.334 0 2.667-.666 4-1.334 2-4 3.334-6.667 3.334-2.667 0-5.333-1.334-5.333-4.667 0-4 4-5.333 8-5.333 1.333 0 3.333 0 4.666.666v2z"/>
  <path fill="#232F3E" d="M113.333 26.667c-4 0-6.666 2-8 6h-.666v-4.667c0-1.333-.667-2-2-2s-2 .667-2 2v24c0 1.333.667 2 2 2s2-.667 2-2v-12c0-4.667 0-10 6-10 5.333 0 5.333 4 5.333 8v14c0 1.333.667 2 2 2s2-.667 2-2v-14c0-6.667-1.333-11.333-8-11.333zM60 26.667c-6.667 0-12 4.666-12 12 0 6.666 4.667 12 12 12 6.667 0 12-4.667 12-12 0-6.667-5.333-12-12-12zm0 20c-4.667 0-8-3.334-8-8 0-4.667 3.333-8 8-8s8 3.333 8 8c0 4.666-3.333 8-8 8z"/>
  <path fill="#FF9900" d="M142.667 56.667c-12 8-28 12-42.667 12-20 0-38-6.667-52-18-1.333-1.334 0-3.334 1.333-2 14.667 12 32.667 18.666 52 18.666 12.667 0 26.667-2.666 39.334-8 2-1.333 3.333 1.334 2 2.667z"/>
  <path fill="#FF9900" d="M148 50.667c-1.333-2-10-1.334-13.333-.667-1.334 0-1.334-1.333 0-2 6.666-4.667 16.666-3.333 18-2 1.333 1.333 0 11.333-6 16-1.334.667-2 0-1.334-1.333 1.334-3.334 4-10.667 2.667-12z"/>
</svg>
